<?xml version="1.0" encoding="UTF-8"?>
<svg xmlns="http://www.w3.org/2000/svg" xmlns:xlink="http://www.w3.org/1999/xlink" id="Layer_2" data-name="Layer 2" viewBox="0 0 820.74 222.91">
  <defs>
    <style>
      .cls-1 {
        fill: #fff;
      }

      .cls-2 {
        fill: #634524;
      }

      .cls-3 {
        fill: #3a3a3c;
      }

      .cls-4 {
        fill: url(#linear-gradient);
      }

      .cls-5 {
        fill: #7f7f7f;
      }

      .cls-6 {
        fill: #3a393b;
      }
    </style>
    <linearGradient id="linear-gradient" x1="66.25" y1="69.93" x2="127.96" y2="95.25" gradientUnits="userSpaceOnUse">
      <stop offset="0" stop-color="#dfb35a"></stop>
      <stop offset="1" stop-color="#f9e38d"></stop>
    </linearGradient>
  </defs>
  <g id="Layer_1-2" data-name="Layer 1">
    <g>
      <g>
        <path d="M277.69,103.71c-3.34,0-6.36-.75-9.08-2.24-2.71-1.49-4.87-3.67-6.47-6.54-1.6-2.87-2.4-6.36-2.4-10.49v-11.56c0-6.19,1.76-10.95,5.29-14.28,3.52-3.33,8.3-4.99,14.33-4.99s10.61,1.57,13.87,4.71c3.27,3.14,4.9,7.4,4.9,12.76v.28h-9.04v-.55c0-1.7-.36-3.23-1.08-4.61-.72-1.38-1.8-2.47-3.23-3.27-1.44-.8-3.25-1.2-5.43-1.2-3.25,0-5.8,.99-7.65,2.96-1.86,1.97-2.78,4.66-2.78,8.05v11.84c0,3.35,.93,6.04,2.78,8.08,1.85,2.04,4.45,3.06,7.79,3.06s5.77-.87,7.3-2.61c1.53-1.74,2.3-3.95,2.3-6.61v-.69h-11.55v-7.71h20.59v24.63h-8.48v-4.61h-1.25c-.33,.78-.85,1.61-1.57,2.48-.72,.87-1.8,1.61-3.23,2.2-1.44,.6-3.41,.89-5.91,.89Z"></path>
        <path d="M323.59,103.71c-3.43,0-6.51-.69-9.25-2.06-2.74-1.38-4.89-3.37-6.47-5.99-1.58-2.62-2.37-5.76-2.37-9.43v-1.1c0-3.67,.79-6.81,2.37-9.43,1.58-2.61,3.73-4.61,6.47-5.99,2.73-1.38,5.82-2.06,9.25-2.06s6.51,.69,9.25,2.06c2.74,1.38,4.89,3.37,6.47,5.99,1.58,2.61,2.37,5.76,2.37,9.43v1.1c0,3.67-.79,6.81-2.37,9.43-1.58,2.61-3.73,4.61-6.47,5.99-2.74,1.38-5.82,2.06-9.25,2.06Zm0-7.71c2.69,0,4.91-.86,6.68-2.58,1.76-1.72,2.64-4.19,2.64-7.4v-.69c0-3.21-.87-5.68-2.61-7.4-1.74-1.72-3.98-2.58-6.71-2.58s-4.92,.86-6.68,2.58c-1.76,1.72-2.64,4.19-2.64,7.4v.69c0,3.21,.88,5.68,2.64,7.4,1.76,1.72,3.99,2.58,6.68,2.58Z"></path>
        <path d="M349.74,102.75V54.59h8.76v48.16h-8.76Z"></path>
        <path d="M382.15,103.71c-2.74,0-5.3-.68-7.68-2.03-2.39-1.35-4.3-3.34-5.74-5.95-1.44-2.61-2.16-5.78-2.16-9.5v-1.1c0-3.72,.72-6.88,2.16-9.5,1.44-2.61,3.34-4.6,5.7-5.95,2.37-1.35,4.94-2.03,7.72-2.03,2.09,0,3.84,.24,5.25,.72,1.41,.48,2.56,1.09,3.44,1.82,.88,.73,1.55,1.51,2.02,2.34h1.25v-17.96h8.76v48.16h-8.62v-4.13h-1.25c-.79,1.28-2.01,2.45-3.65,3.51-1.65,1.05-4.05,1.58-7.2,1.58Zm2.64-7.57c2.69,0,4.94-.86,6.75-2.58,1.81-1.72,2.71-4.23,2.71-7.53v-.69c0-3.3-.89-5.81-2.68-7.53-1.79-1.72-4.05-2.58-6.78-2.58s-4.94,.86-6.75,2.58-2.71,4.23-2.71,7.53v.69c0,3.3,.9,5.81,2.71,7.53s4.06,2.58,6.75,2.58Z"></path>
        <path d="M428.33,103.71c-3.43,0-6.46-.72-9.08-2.17-2.62-1.44-4.66-3.49-6.12-6.12-1.46-2.64-2.19-5.75-2.19-9.32v-.83c0-3.58,.72-6.69,2.16-9.32,1.44-2.64,3.45-4.68,6.05-6.12,2.6-1.44,5.61-2.17,9.04-2.17s6.33,.75,8.83,2.24c2.5,1.49,4.45,3.56,5.84,6.19,1.39,2.64,2.09,5.7,2.09,9.19v2.96h-25.11c.09,2.34,.97,4.24,2.64,5.71,1.67,1.47,3.71,2.2,6.12,2.2s4.27-.53,5.42-1.58c1.16-1.05,2.04-2.22,2.64-3.51l7.16,3.72c-.65,1.19-1.59,2.49-2.82,3.89-1.23,1.4-2.86,2.59-4.9,3.58-2.04,.99-4.64,1.48-7.79,1.48Zm-8.42-21.95h16.14c-.19-1.97-.99-3.55-2.4-4.75-1.41-1.19-3.26-1.79-5.53-1.79s-4.24,.6-5.63,1.79c-1.39,1.19-2.25,2.78-2.57,4.75Z"></path>
        <path d="M452.75,102.75v-34.13h8.62v4.47h1.25c.56-1.19,1.6-2.33,3.13-3.41,1.53-1.08,3.85-1.62,6.95-1.62,2.69,0,5.04,.61,7.06,1.82,2.02,1.22,3.58,2.89,4.69,5.02,1.11,2.13,1.67,4.62,1.67,7.47v20.37h-8.76v-19.68c0-2.57-.64-4.49-1.91-5.78-1.28-1.28-3.09-1.93-5.46-1.93-2.69,0-4.78,.88-6.26,2.65-1.48,1.77-2.23,4.23-2.23,7.4v17.34h-8.76Z"></path>
        <path d="M512.97,102.75V54.59h17.04l8.42,41.97h1.25l8.42-41.97h17.04v48.16h-8.9V61.26h-1.25l-8.35,41.49h-15.16l-8.35-41.49h-1.25v41.49h-8.9Z"></path>
        <path d="M590.31,103.71c-3.43,0-6.46-.72-9.08-2.17-2.62-1.44-4.66-3.49-6.12-6.12-1.46-2.64-2.19-5.75-2.19-9.32v-.83c0-3.58,.72-6.69,2.16-9.32,1.44-2.64,3.45-4.68,6.05-6.12,2.6-1.44,5.61-2.17,9.04-2.17s6.33,.75,8.83,2.24c2.5,1.49,4.45,3.56,5.84,6.19,1.39,2.64,2.09,5.7,2.09,9.19v2.96h-25.11c.09,2.34,.97,4.24,2.64,5.71,1.67,1.47,3.71,2.2,6.12,2.2s4.27-.53,5.42-1.58c1.16-1.05,2.04-2.22,2.64-3.51l7.16,3.72c-.65,1.19-1.59,2.49-2.82,3.89-1.23,1.4-2.86,2.59-4.9,3.58-2.04,.99-4.64,1.48-7.79,1.48Zm-8.42-21.95h16.14c-.19-1.97-.99-3.55-2.4-4.75-1.41-1.19-3.26-1.79-5.53-1.79s-4.24,.6-5.63,1.79c-1.39,1.19-2.25,2.78-2.57,4.75Z"></path>
        <path d="M626.82,102.75c-2.27,0-4.12-.7-5.53-2.1-1.41-1.4-2.12-3.27-2.12-5.61v-19.27h-8.62v-7.16h8.62v-10.6h8.76v10.6h9.46v7.16h-9.46v17.75c0,1.38,.65,2.06,1.95,2.06h6.68v7.16h-9.74Z"></path>
        <path d="M656.03,103.71c-2.46,0-4.66-.42-6.61-1.27-1.95-.85-3.49-2.09-4.63-3.72-1.14-1.63-1.7-3.61-1.7-5.95s.57-4.3,1.7-5.88c1.14-1.58,2.71-2.78,4.73-3.58,2.02-.8,4.32-1.2,6.92-1.2h9.46v-1.93c0-1.61-.51-2.92-1.53-3.96-1.02-1.03-2.64-1.55-4.87-1.55s-3.8,.49-4.87,1.48c-1.07,.99-1.76,2.26-2.09,3.82l-8.07-2.68c.56-1.74,1.45-3.34,2.68-4.78,1.23-1.45,2.87-2.61,4.94-3.51,2.06-.9,4.58-1.34,7.55-1.34,4.54,0,8.14,1.13,10.78,3.37,2.64,2.25,3.96,5.5,3.96,9.77v12.73c0,1.38,.65,2.06,1.95,2.06h2.78v7.16h-5.84c-1.72,0-3.13-.41-4.24-1.24-1.11-.83-1.67-1.93-1.67-3.3v-.07h-1.32c-.19,.55-.6,1.27-1.25,2.17-.65,.89-1.67,1.69-3.06,2.37-1.39,.69-3.29,1.03-5.7,1.03Zm1.53-7.02c2.46,0,4.46-.68,6.02-2.03,1.55-1.35,2.33-3.15,2.33-5.4v-.69h-8.83c-1.62,0-2.9,.34-3.83,1.03-.93,.69-1.39,1.65-1.39,2.89s.49,2.25,1.46,3.03c.97,.78,2.39,1.17,4.24,1.17Z"></path>
        <path d="M685.52,102.75V54.59h8.76v48.16h-8.76Z"></path>
        <path d="M739.91,103.71c-6.03,0-10.8-1.66-14.33-4.99-3.52-3.33-5.29-8.08-5.29-14.28v-11.56c0-6.19,1.76-10.95,5.29-14.28,3.52-3.33,8.3-4.99,14.33-4.99s10.61,1.62,13.87,4.85c3.27,3.23,4.9,7.67,4.9,13.31v.41h-9.04v-.69c0-2.84-.8-5.18-2.4-7.02-1.6-1.83-4.05-2.75-7.34-2.75s-5.8,.99-7.65,2.96c-1.86,1.97-2.78,4.66-2.78,8.05v11.84c0,3.35,.93,6.02,2.78,8.02,1.85,2,4.4,2.99,7.65,2.99s5.74-.93,7.34-2.79,2.4-4.19,2.4-6.98v-1.24h9.04v.96c0,5.64-1.63,10.08-4.9,13.31-3.27,3.23-7.89,4.85-13.87,4.85Z"></path>
        <path d="M782.89,103.71c-3.43,0-6.51-.69-9.25-2.06-2.74-1.38-4.89-3.37-6.47-5.99-1.58-2.62-2.37-5.76-2.37-9.43v-1.1c0-3.67,.79-6.81,2.37-9.43,1.58-2.61,3.73-4.61,6.47-5.99,2.73-1.38,5.82-2.06,9.25-2.06s6.51,.69,9.25,2.06c2.74,1.38,4.89,3.37,6.47,5.99,1.58,2.61,2.37,5.76,2.37,9.43v1.1c0,3.67-.79,6.81-2.37,9.43-1.58,2.61-3.73,4.61-6.47,5.99-2.74,1.38-5.82,2.06-9.25,2.06Zm0-7.71c2.69,0,4.91-.86,6.68-2.58,1.76-1.72,2.64-4.19,2.64-7.4v-.69c0-3.21-.87-5.68-2.61-7.4-1.74-1.72-3.98-2.58-6.71-2.58s-4.92,.86-6.68,2.58c-1.76,1.72-2.64,4.19-2.64,7.4v.69c0,3.21,.88,5.68,2.64,7.4,1.76,1.72,3.99,2.58,6.68,2.58Z"></path>
        <path d="M814.12,103.71c-1.85,0-3.42-.61-4.69-1.82-1.28-1.21-1.91-2.79-1.91-4.71s.64-3.5,1.91-4.71c1.27-1.21,2.84-1.82,4.69-1.82s3.48,.61,4.73,1.82c1.25,1.22,1.88,2.79,1.88,4.71s-.63,3.5-1.88,4.71-2.83,1.82-4.73,1.82Z"></path>
      </g>
      <g>
        <path class="cls-5" d="M259.75,161.14v-28.52h16.73v2.36h-14.2v10.67h13.09v2.36h-13.09v10.76h14.35v2.36h-16.88Z"></path>
        <path class="cls-5" d="M284.62,161.14v-19.8h2.29v3.67h.47c.47-1.06,1.25-2,2.33-2.83,1.08-.83,2.65-1.24,4.7-1.24,1.4,0,2.68,.3,3.84,.9,1.16,.6,2.09,1.5,2.79,2.71,.7,1.21,1.05,2.72,1.05,4.54v12.06h-2.37v-11.9c0-2.17-.53-3.73-1.58-4.69-1.05-.95-2.47-1.43-4.23-1.43-1.98,0-3.63,.67-4.94,2.02-1.32,1.34-1.98,3.38-1.98,6.09v9.9h-2.37Z"></path>
        <path class="cls-5" d="M320.05,161.71c-1.98,0-3.7-.43-5.16-1.28-1.46-.86-2.6-2.06-3.42-3.61s-1.23-3.33-1.23-5.34v-.49c0-2.04,.41-3.82,1.23-5.36s1.94-2.73,3.38-3.59c1.44-.86,3.08-1.28,4.92-1.28s3.38,.39,4.76,1.16c1.38,.77,2.47,1.89,3.26,3.34,.79,1.45,1.19,3.19,1.19,5.19v1.3h-16.37c.08,2.47,.81,4.38,2.19,5.72,1.38,1.34,3.13,2.02,5.24,2.02,1.79,0,3.18-.42,4.17-1.26,.99-.84,1.75-1.87,2.27-3.1l2.13,.98c-.39,.9-.94,1.77-1.64,2.63s-1.6,1.56-2.71,2.12c-1.11,.56-2.52,.83-4.23,.83Zm-7.39-12.06h13.92c-.11-2.15-.78-3.8-2.02-4.95-1.24-1.15-2.83-1.73-4.78-1.73s-3.52,.58-4.78,1.73c-1.27,1.15-2.04,2.81-2.33,4.95Z"></path>
        <path class="cls-5" d="M337.21,161.14v-19.8h2.29v2.49h.47c.37-.9,.92-1.55,1.64-1.96,.72-.41,1.73-.61,3.02-.61h2.25v2.28h-2.53c-1.45,0-2.61,.42-3.48,1.26-.87,.84-1.3,2.16-1.3,3.95v12.39h-2.37Z"></path>
        <path class="cls-5" d="M352.52,151.32v-.49c0-2.09,.41-3.88,1.25-5.38,.83-1.49,1.94-2.65,3.34-3.46,1.4-.81,2.95-1.22,4.67-1.22,2.11,0,3.75,.43,4.92,1.28,1.17,.86,2.04,1.83,2.59,2.91h.47v-3.63h2.21v24.85c0,.98-.25,1.74-.75,2.28-.5,.54-1.27,.81-2.29,.81h-13.13v-2.2h12.65c.82,0,1.23-.41,1.23-1.22v-8.52h-.47c-.34,.65-.82,1.29-1.44,1.91-.62,.63-1.42,1.14-2.39,1.53s-2.17,.59-3.6,.59c-1.71,0-3.28-.41-4.69-1.22-1.41-.81-2.52-1.98-3.34-3.48-.82-1.51-1.23-3.29-1.23-5.36Zm9.81,7.86c2.19,0,3.96-.71,5.32-2.12,1.36-1.41,2.04-3.35,2.04-5.83v-.33c0-2.5-.68-4.45-2.04-5.85-1.36-1.4-3.13-2.1-5.32-2.1s-3.93,.7-5.3,2.1c-1.37,1.4-2.06,3.35-2.06,5.85v.33c0,2.47,.68,4.41,2.06,5.83,1.37,1.41,3.14,2.12,5.3,2.12Z"></path>
        <path class="cls-5" d="M383.71,169.29v-2.2h11.23c.79,0,1.19-.41,1.19-1.22v-8.15h-.47c-.32,.65-.76,1.27-1.32,1.85-.57,.58-1.3,1.06-2.22,1.43-.91,.37-2.05,.55-3.42,.55s-2.64-.3-3.82-.9-2.11-1.49-2.81-2.69c-.7-1.19-1.05-2.7-1.05-4.52v-12.1h2.37v11.94c0,2.15,.53,3.69,1.58,4.64,1.05,.95,2.46,1.43,4.23,1.43,1.98,0,3.62-.66,4.94-2,1.32-1.33,1.98-3.35,1.98-6.07v-9.94h2.37v24.85c0,.98-.26,1.74-.77,2.28-.51,.54-1.28,.81-2.31,.81h-11.7Z"></path>
        <path class="cls-5" d="M418.83,161.14v-2.36h3.95v-23.79h-3.95v-2.36h10.52c3.61,0,6.43,.94,8.44,2.83,2.02,1.89,3.02,4.83,3.02,8.82v5.26c0,3.99-1.01,6.93-3.02,8.8-2.02,1.87-4.83,2.81-8.44,2.81h-10.52Zm6.49-2.36h4.03c2.9,0,5.11-.72,6.64-2.16,1.53-1.44,2.29-3.76,2.29-6.97v-5.5c0-3.23-.76-5.56-2.29-6.99-1.53-1.43-3.74-2.14-6.64-2.14h-4.03v23.75Z"></path>
        <path class="cls-5" d="M457.82,161.71c-1.98,0-3.7-.43-5.16-1.28-1.46-.86-2.6-2.06-3.42-3.61s-1.23-3.33-1.23-5.34v-.49c0-2.04,.41-3.82,1.23-5.36s1.94-2.73,3.38-3.59c1.44-.86,3.08-1.28,4.92-1.28s3.38,.39,4.76,1.16c1.38,.77,2.47,1.89,3.26,3.34,.79,1.45,1.19,3.19,1.19,5.19v1.3h-16.37c.08,2.47,.81,4.38,2.19,5.72,1.38,1.34,3.13,2.02,5.24,2.02,1.79,0,3.18-.42,4.17-1.26,.99-.84,1.75-1.87,2.27-3.1l2.13,.98c-.39,.9-.94,1.77-1.64,2.63s-1.6,1.56-2.71,2.12c-1.11,.56-2.52,.83-4.23,.83Zm-7.39-12.06h13.92c-.11-2.15-.78-3.8-2.02-4.95-1.24-1.15-2.83-1.73-4.78-1.73s-3.52,.58-4.78,1.73c-1.27,1.15-2.04,2.81-2.33,4.95Z"></path>
        <path class="cls-5" d="M474.98,161.14v-28.52h2.37v28.52h-2.37Z"></path>
        <path class="cls-5" d="M487.87,137.92c-.58,0-1.07-.2-1.46-.61s-.59-.91-.59-1.51,.2-1.13,.59-1.53c.4-.39,.88-.59,1.46-.59s1.1,.2,1.48,.59c.38,.39,.57,.9,.57,1.53s-.19,1.1-.57,1.51c-.38,.41-.88,.61-1.48,.61Zm-1.19,23.22v-19.8h2.37v19.8h-2.37Z"></path>
        <path class="cls-5" d="M503.61,161.14l-7.2-19.8h2.53l6.33,17.93h.47l6.33-17.93h2.53l-7.2,19.8h-3.8Z"></path>
        <path class="cls-5" d="M529.9,161.71c-1.98,0-3.7-.43-5.16-1.28-1.46-.86-2.6-2.06-3.42-3.61s-1.23-3.33-1.23-5.34v-.49c0-2.04,.41-3.82,1.23-5.36s1.94-2.73,3.38-3.59c1.44-.86,3.08-1.28,4.92-1.28s3.38,.39,4.76,1.16c1.38,.77,2.47,1.89,3.26,3.34,.79,1.45,1.19,3.19,1.19,5.19v1.3h-16.37c.08,2.47,.81,4.38,2.19,5.72,1.38,1.34,3.13,2.02,5.24,2.02,1.79,0,3.18-.42,4.17-1.26,.99-.84,1.75-1.87,2.27-3.1l2.13,.98c-.39,.9-.94,1.77-1.64,2.63s-1.6,1.56-2.71,2.12c-1.11,.56-2.52,.83-4.23,.83Zm-7.39-12.06h13.92c-.11-2.15-.78-3.8-2.02-4.95-1.24-1.15-2.83-1.73-4.78-1.73s-3.52,.58-4.78,1.73c-1.27,1.15-2.04,2.81-2.33,4.95Z"></path>
        <path class="cls-5" d="M547.06,161.14v-19.8h2.29v2.49h.47c.37-.9,.92-1.55,1.64-1.96,.72-.41,1.73-.61,3.02-.61h2.25v2.28h-2.53c-1.45,0-2.61,.42-3.48,1.26-.87,.84-1.3,2.16-1.3,3.95v12.39h-2.37Z"></path>
        <path class="cls-5" d="M566.44,169.29v-2.2h11.23c.79,0,1.19-.41,1.19-1.22v-8.15h-.47c-.32,.65-.76,1.27-1.32,1.85-.57,.58-1.3,1.06-2.22,1.43-.91,.37-2.05,.55-3.42,.55s-2.64-.3-3.82-.9-2.11-1.49-2.81-2.69c-.7-1.19-1.05-2.7-1.05-4.52v-12.1h2.37v11.94c0,2.15,.53,3.69,1.58,4.64,1.05,.95,2.46,1.43,4.23,1.43,1.98,0,3.62-.66,4.94-2,1.32-1.33,1.98-3.35,1.98-6.07v-9.94h2.37v24.85c0,.98-.26,1.74-.77,2.28-.51,.54-1.28,.81-2.31,.81h-11.7Z"></path>
        <path class="cls-5" d="M603.13,161.14v-19.8h2.29v2.61h.47c.4-.73,1.03-1.42,1.9-2.06,.87-.64,2.11-.96,3.72-.96s2.81,.37,3.78,1.1c.96,.73,1.65,1.62,2.08,2.65h.47c.45-1.03,1.15-1.92,2.1-2.65,.95-.73,2.28-1.1,3.99-1.1,1.32,0,2.46,.28,3.44,.83,.98,.56,1.74,1.33,2.29,2.32,.55,.99,.83,2.15,.83,3.48v13.57h-2.37v-13.32c0-1.41-.41-2.55-1.25-3.4s-2-1.28-3.5-1.28-2.81,.51-3.83,1.53c-1.03,1.02-1.54,2.51-1.54,4.46v12.02h-2.37v-13.32c0-1.41-.42-2.55-1.25-3.4-.83-.86-2-1.28-3.5-1.28s-2.81,.51-3.84,1.53-1.54,2.51-1.54,4.46v12.02h-2.37Z"></path>
        <path class="cls-5" d="M645.48,161.71c-1.34,0-2.56-.24-3.66-.71-1.09-.47-1.96-1.17-2.59-2.1-.63-.92-.95-2.04-.95-3.34s.32-2.43,.95-3.3,1.49-1.52,2.57-1.96c1.08-.43,2.28-.65,3.6-.65h7.04v-1.59c0-1.6-.45-2.85-1.34-3.75-.9-.9-2.2-1.34-3.91-1.34s-3.02,.43-4.01,1.28-1.65,2-2,3.44l-2.29-.69c.32-1.17,.82-2.22,1.5-3.16,.68-.94,1.59-1.68,2.73-2.24s2.49-.84,4.07-.84c2.42,0,4.3,.65,5.64,1.96,1.33,1.3,2,3.12,2,5.46v9.62c0,.81,.37,1.22,1.11,1.22h1.86v2.12h-2.53c-.82,0-1.46-.25-1.94-.75-.47-.5-.71-1.19-.71-2.06v-.28h-.4c-.34,.6-.78,1.18-1.32,1.75-.54,.57-1.25,1.03-2.12,1.39s-1.96,.53-3.28,.53Zm.16-2.2c2.03,0,3.67-.63,4.92-1.89,1.25-1.26,1.88-3.05,1.88-5.36v-.49h-7c-1.37,0-2.51,.31-3.42,.92-.91,.61-1.36,1.56-1.36,2.83s.47,2.26,1.4,2.95c.93,.69,2.13,1.04,3.58,1.04Z"></path>
        <path class="cls-5" d="M672.37,161.71c-1.71,0-3.27-.41-4.67-1.24-1.4-.83-2.51-2.01-3.34-3.54s-1.25-3.35-1.25-5.44v-.49c0-2.09,.41-3.9,1.23-5.44,.82-1.53,1.93-2.72,3.34-3.54,1.41-.83,2.97-1.24,4.69-1.24,1.42,0,2.62,.2,3.6,.59,.98,.39,1.77,.9,2.39,1.51,.62,.61,1.1,1.26,1.44,1.94h.47v-12.18h2.37v28.52h-2.29v-3.63h-.47c-.55,1.09-1.42,2.06-2.59,2.91-1.17,.86-2.81,1.28-4.92,1.28Zm.55-2.2c2.19,0,3.96-.72,5.32-2.16,1.36-1.44,2.04-3.42,2.04-5.95v-.33c0-2.53-.68-4.51-2.04-5.95-1.36-1.44-3.13-2.16-5.32-2.16s-3.93,.72-5.3,2.16-2.06,3.42-2.06,5.95v.33c0,2.53,.68,4.51,2.06,5.95,1.37,1.44,3.14,2.16,5.3,2.16Z"></path>
        <path class="cls-5" d="M700.84,161.71c-1.98,0-3.7-.43-5.16-1.28-1.46-.86-2.6-2.06-3.42-3.61s-1.23-3.33-1.23-5.34v-.49c0-2.04,.41-3.82,1.23-5.36s1.94-2.73,3.38-3.59c1.44-.86,3.08-1.28,4.92-1.28s3.38,.39,4.76,1.16c1.38,.77,2.47,1.89,3.26,3.34,.79,1.45,1.19,3.19,1.19,5.19v1.3h-16.37c.08,2.47,.81,4.38,2.19,5.72,1.38,1.34,3.13,2.02,5.24,2.02,1.79,0,3.18-.42,4.17-1.26,.99-.84,1.75-1.87,2.27-3.1l2.13,.98c-.39,.9-.94,1.77-1.64,2.63s-1.6,1.56-2.71,2.12c-1.11,.56-2.52,.83-4.23,.83Zm-7.39-12.06h13.92c-.11-2.15-.78-3.8-2.02-4.95-1.24-1.15-2.83-1.73-4.78-1.73s-3.52,.58-4.78,1.73c-1.27,1.15-2.04,2.81-2.33,4.95Z"></path>
        <path class="cls-5" d="M730.5,161.14v-28.52h16.73v2.36h-14.2v10.67h13.09v2.36h-13.09v10.76h14.35v2.36h-16.88Z"></path>
        <path class="cls-5" d="M761.26,161.71c-1.34,0-2.56-.24-3.66-.71-1.09-.47-1.96-1.17-2.59-2.1-.63-.92-.95-2.04-.95-3.34s.32-2.43,.95-3.3,1.49-1.52,2.57-1.96c1.08-.43,2.28-.65,3.6-.65h7.04v-1.59c0-1.6-.45-2.85-1.34-3.75-.9-.9-2.2-1.34-3.91-1.34s-3.02,.43-4.01,1.28-1.65,2-2,3.44l-2.29-.69c.32-1.17,.82-2.22,1.5-3.16,.68-.94,1.59-1.68,2.73-2.24s2.49-.84,4.07-.84c2.42,0,4.3,.65,5.64,1.96,1.33,1.3,2,3.12,2,5.46v9.62c0,.81,.37,1.22,1.11,1.22h1.86v2.12h-2.53c-.82,0-1.46-.25-1.94-.75-.47-.5-.71-1.19-.71-2.06v-.28h-.4c-.34,.6-.78,1.18-1.32,1.75-.54,.57-1.25,1.03-2.12,1.39s-1.96,.53-3.28,.53Zm.16-2.2c2.03,0,3.67-.63,4.92-1.89,1.25-1.26,1.88-3.05,1.88-5.36v-.49h-7c-1.37,0-2.51,.31-3.42,.92-.91,.61-1.36,1.56-1.36,2.83s.47,2.26,1.4,2.95c.93,.69,2.13,1.04,3.58,1.04Z"></path>
        <path class="cls-5" d="M787.92,161.71c-2.32,0-4.3-.57-5.95-1.71-1.65-1.14-2.66-3.03-3.02-5.66l2.33-.45c.21,1.44,.64,2.57,1.28,3.4,.65,.83,1.44,1.42,2.37,1.77,.93,.35,1.93,.53,2.99,.53,1.58,0,2.85-.33,3.82-1s1.44-1.58,1.44-2.75-.45-2.02-1.36-2.49c-.91-.46-2.12-.83-3.62-1.1l-1.82-.33c-1.21-.22-2.31-.55-3.28-1s-1.75-1.05-2.31-1.81c-.57-.76-.85-1.71-.85-2.85,0-1.71,.65-3.06,1.96-4.03,1.3-.98,3.04-1.47,5.2-1.47s3.95,.51,5.28,1.53c1.33,1.02,2.17,2.49,2.51,4.42l-2.21,.49c-.26-1.57-.89-2.69-1.88-3.34-.99-.65-2.22-.98-3.7-.98s-2.61,.29-3.48,.86c-.87,.57-1.3,1.41-1.3,2.53s.4,1.88,1.19,2.38c.79,.5,1.87,.88,3.24,1.12l1.82,.33c1.32,.22,2.5,.54,3.56,.96,1.05,.42,1.89,1.01,2.51,1.77,.62,.76,.93,1.77,.93,3.01,0,1.87-.69,3.32-2.06,4.34-1.37,1.02-3.23,1.53-5.58,1.53Z"></path>
        <path class="cls-5" d="M805.95,169.29v-2.2h11.23c.79,0,1.19-.41,1.19-1.22v-8.15h-.47c-.32,.65-.76,1.27-1.32,1.85-.57,.58-1.3,1.06-2.22,1.43-.91,.37-2.05,.55-3.42,.55s-2.64-.3-3.82-.9-2.11-1.49-2.81-2.69c-.7-1.19-1.05-2.7-1.05-4.52v-12.1h2.37v11.94c0,2.15,.53,3.69,1.58,4.64,1.05,.95,2.46,1.43,4.23,1.43,1.98,0,3.62-.66,4.94-2,1.32-1.33,1.98-3.35,1.98-6.07v-9.94h2.37v24.85c0,.98-.26,1.74-.77,2.28-.51,.54-1.28,.81-2.31,.81h-11.7Z"></path>
      </g>
    </g>
    <g>
      <path class="cls-6" d="M49.85,155.73c.81,5.19,2.24,10.19,4.2,14.9l-9.3,6.03,11.2,17.24,8.87-5.76c3.1,3.64,6.59,6.94,10.42,9.85l-5.47,10.74,18.31,9.33,5.2-10.21c4.63,1.69,9.51,2.89,14.55,3.56v11.49h20.55v-11.8c4.57-.75,8.98-1.94,13.19-3.54l5.35,10.5,18.32-9.33-5.74-11.25c3.89-3.03,7.42-6.47,10.53-10.26l9.01,5.85,11.2-17.24-9.75-6.33c1.73-4.38,3-8.99,3.75-13.77h10.92v-20.55h-11.01c-.75-4.58-1.99-9.01-3.65-13.23h0s-56.65,27.02-130.65,33.78Z"></path>
      <path class="cls-3" d="M93.33,202.85s.07,.02,.11,.03l-5.19,10.18-.1-.05,5.18-10.16Z"></path>
      <path class="cls-4" d="M191.08,109.81c-15.15,8.14-35.98,16.75-64.56,24.69,0,0-49.37,14.29-85.67,14.39v1.83h-.18v-20.55h9.27c.8-4.82,2.13-9.47,3.93-13.89l-8.29-5.38,11.2-17.25,7.63,4.95,9-16.47-8.39-6.32,12.37-16.42,5.98,4.51L118.29,0l34.03,65.13,6.87-5.18,12.37,16.41-9.59,7.23,8.05,15.42c.06,.07,.12,.14,.17,.21l9.86-6.39,11.04,16.99Z"></path>
      <path class="cls-2" d="M188.58,64.81c1.36-.03,2.69-.05,3.98-.05,18.97,0,31.21,3.64,33.03,9.93,1.96,6.73-7.76,17.25-25.97,28.17-19.49,11.69-46.69,22.9-76.6,31.58-66.15,19.21-114.74,17.82-118.62,4.48-1.8-6.2,10.01-22.77,25.57-32.74h0c-.58,.34-1.15,.68-1.72,1.02C13.73,115.89-2.89,128.67,.43,140.07c3.04,10.48,20.88,12.93,36.87,12.93,1.43,0,2.84-.02,4.23-.06,23.06-.58,52.42-5.74,82.66-14.52,30.23-8.78,57.78-20.15,77.57-32.01,14.52-8.7,31.13-21.47,27.81-32.88-3.32-11.41-28.34-9.21-45.25-8.78"></path>
      <path class="cls-1" d="M173.5,134.62s-39.38,19.24-111.57,27.15c0,0,9.76,47.59,64.26,40.31,9.74-1.3,19.12-4.76,27.11-10.49,12.56-9.01,23.98-23.2,20.21-56.97Z"></path>
    </g>
  </g>
</svg>
